<?xml version="1.0" encoding="utf-8"?>
<!-- Generator: Adobe Illustrator 15.0.0, SVG Export Plug-In . SVG Version: 6.00 Build 0)  -->
<!DOCTYPE svg PUBLIC "-//W3C//DTD SVG 1.1//EN" "http://www.w3.org/Graphics/SVG/1.1/DTD/svg11.dtd">
<svg version="1.1" id="Capa_1" xmlns="http://www.w3.org/2000/svg" xmlns:xlink="http://www.w3.org/1999/xlink" x="0px" y="0px"
	 width="27.319px" height="20.313px" viewBox="0 0 27.319 20.313" enable-background="new 0 0 27.319 20.313" xml:space="preserve">
<g>
	<g>
		<g>
			<path fill="#FFFFFF" d="M36.171,19.829c5.755-5.755,11.511-11.51,17.266-17.266c1.369-1.369-0.752-3.49-2.121-2.121
				C45.56,6.197,39.805,11.953,34.05,17.708C32.681,19.077,34.802,21.198,36.171,19.829L36.171,19.829z"/>
		</g>
	</g>
	<g>
		<line fill="#FFFFFF" x1="34.943" y1="1.544" x2="52.209" y2="18.81"/>
		<g>
			<path fill="#FFFFFF" d="M33.883,2.605c5.755,5.755,11.51,11.511,17.266,17.266c1.369,1.369,3.49-0.752,2.121-2.121
				c-5.755-5.755-11.51-11.511-17.266-17.266C34.635-0.885,32.514,1.236,33.883,2.605L33.883,2.605z"/>
		</g>
	</g>
</g>
<g>
	<g>
		<g>
			<path d="M1.451,4.656c8.139,0,16.278,0,24.417,0c1.935,0,1.935-3,0-3c-8.139,0-16.278,0-24.417,0
				C-0.483,1.656-0.483,4.656,1.451,4.656L1.451,4.656z"/>
		</g>
	</g>
	<g>
		<g>
			<path d="M1.451,11.656c8.139,0,16.278,0,24.417,0c1.935,0,1.935-3,0-3c-8.139,0-16.278,0-24.417,0
				C-0.483,8.656-0.483,11.656,1.451,11.656L1.451,11.656z"/>
		</g>
	</g>
	<g>
		<g>
			<path d="M1.451,18.656c8.139,0,16.278,0,24.417,0c1.935,0,1.935-3,0-3c-8.139,0-16.278,0-24.417,0
				C-0.483,15.656-0.483,18.656,1.451,18.656L1.451,18.656z"/>
		</g>
	</g>
</g>
</svg>
