<?xml version="1.0" encoding="utf-8"?>
  <!-- Generator: Adobe Illustrator 15.0.0, SVG Export Plug-In . SVG Version: 6.00 Build 0)  -->
  <!-- Edited manually with Sublime Text 3 -->
  <!DOCTYPE svg PUBLIC "-//W3C//DTD SVG 1.1//EN" "http://www.w3.org/Graphics/SVG/1.1/DTD/svg11.dtd">
  <svg version="1.1" id="Capa_1" xmlns="http://www.w3.org/2000/svg" xmlns:xlink="http://www.w3.org/1999/xlink" x="0px" y="0px" width="171.071px" height="88.559px" viewBox="0 0 171.071 88.559" enable-background="new 0 0 171.071 88.559" xml:space="preserve">

    <style>
      svg * {
        transition: fill .1s ease-out, opacity .1s ease-out;
      }
      .footer #primary-form {
        fill: #bdbdbd;
      }
    </style>
  
    <g id="primary-form" fill="#017dfb">
      <path d="M48.797,37.125c-3.493-1.688-6.622-2.965-9.387-3.832c-5.977,7.219-9.504,14.215-10.582,20.988
        c-0.164,1.102-0.246,2.209-0.246,3.322c0,1.113,0.105,2.232,0.316,3.357c-2.344,1.735-4.758,3.023-7.242,3.867
        c-0.867,0.304-1.57,0.457-2.109,0.457c-0.54,0-1.096-0.141-1.67-0.422c-0.575-0.281-1.096-0.715-1.564-1.301
        c-1.125-1.313-1.688-3.059-1.688-5.238s0.392-4.382,1.178-6.609c0.785-2.227,1.869-4.477,3.252-6.75
        c2.602-4.289,6.351-8.754,11.25-13.395c-1.922-0.117-3.832-0.176-5.73-0.176s-3.879,0.246-5.941,0.738
        c-4.359,1.032-6.961,3-7.805,5.906c-0.164,0.516-0.246,1.19-0.246,2.021c0,0.832,0.281,1.904,0.844,3.217
        c-0.469,0.867-1.559,1.219-3.27,1.055c-1.781-0.164-3.176-0.645-4.184-1.441c-1.898-1.5-2.848-3.152-2.848-4.957
        c0-3.516,2.461-6.34,7.383-8.473c4.57-1.992,10.137-2.988,16.699-2.988c2.93,0,6.14,0.375,9.633,1.125
        c8.789-7.313,17.801-12.668,27.035-16.066c4.453-1.64,8.39-2.461,11.813-2.461c1.594,0,2.783,0.357,3.568,1.072
        c0.785,0.715,1.178,1.617,1.178,2.707s-0.287,2.443-0.861,4.061c-0.575,1.617-1.295,3.416-2.162,5.396
        c-0.867,1.981-1.799,4.108-2.795,6.381c-0.997,2.273-1.928,4.594-2.795,6.961c-2.016,5.508-3.023,10.172-3.023,13.992
        c0,2.79,1.23,4.184,3.691,4.184c0.703,0,1.477-0.176,2.32-0.527c0.445,0.305,0.809,0.709,1.09,1.213
        c0.281,0.504,0.422,0.944,0.422,1.318c0,0.375-0.146,0.914-0.439,1.617c-0.293,0.703-0.709,1.412-1.248,2.127
        c-0.54,0.715-1.19,1.401-1.951,2.057c-0.762,0.656-1.6,1.243-2.514,1.758c-3.422,1.945-7.125,2.238-11.109,0.879
        c-3.305-1.102-5.66-3.375-7.066-6.82c-0.703-1.781-1.055-3.809-1.055-6.082c0-2.273,0.352-4.412,1.055-6.416
        s1.623-3.973,2.76-5.906c1.137-1.934,2.438-3.802,3.902-5.607c1.464-1.805,2.965-3.533,4.5-5.186
        c1.535-1.652,3.035-3.205,4.5-4.658c1.464-1.453,2.76-2.8,3.885-4.043c2.554-2.742,3.832-4.628,3.832-5.66
        c0-0.539-0.492-0.809-1.477-0.809c-4.266,0-9.129,1.594-14.59,4.781c-5.273,3.094-10.219,7.09-14.836,11.988
        c3.727,1.336,5.988,2.543,6.785,3.621C50.168,34.688,50.015,35.907,48.797,37.125z"/>

      <path d="M89.121,63.949c-7.477,0-11.215-3.176-11.215-9.527c0-4.43,2.941-10.57,8.824-18.422
        c-0.586-0.188-1.125-0.352-1.617-0.492s-0.891-0.264-1.195-0.369c-0.305-0.105-0.492-0.275-0.563-0.51
        c-0.07-0.234-0.094-0.504-0.07-0.809c0.093-0.703,0.258-1.266,0.492-1.688l5.309,0.879c4.148-5.039,7.722-8.496,10.723-10.371
        c0.914-0.563,1.559-0.844,1.934-0.844c0.375,0,0.708,0.053,1.002,0.158c0.293,0.105,0.592,0.241,0.896,0.404
        c0.656,0.352,1.172,0.762,1.547,1.23c-3.164,3.094-6.129,6.645-8.895,10.652c5.367,0.938,8.648,1.441,9.844,1.512
        c-0.633,2.508-1.359,3.762-2.18,3.762c-2.016,0-5.332-0.55-9.949-1.652c-2.32,3.867-3.48,7.079-3.48,9.633
        c0,3.516,2.367,5.273,7.102,5.273c5.296,0,9.656-2.566,13.078-7.699c1.055-0.07,1.582,0.364,1.582,1.301
        c0,0.821-0.492,2.045-1.477,3.674c-0.984,1.629-1.969,3.041-2.953,4.236s-2.122,2.373-3.41,3.533
        c-1.289,1.16-2.719,2.197-4.289,3.111C96.738,62.942,93.059,63.949,89.121,63.949z"/>
      
      <path d="M106.734,59.836c-0.492-1.055-0.738-2.35-0.738-3.885c0-1.535,0.334-3.158,1.002-4.869
        c0.668-1.71,1.523-3.416,2.566-5.115c1.042-1.699,2.209-3.34,3.498-4.922c1.289-1.582,2.566-2.982,3.832-4.201
        c2.789-2.648,4.839-3.973,6.153-3.973c0.563,0,1.188,0.241,1.881,0.721c0.69,0.48,1.13,0.838,1.318,1.072
        c-3.54,3.797-5.778,7.465-6.715,11.004c-0.306,1.078-0.457,2.127-0.457,3.146s0.387,1.934,1.16,2.742s1.733,1.213,2.883,1.213
        c1.147,0,2.22-0.216,3.217-0.65c0.995-0.434,1.974-1.002,2.936-1.705c1.898-1.429,3.562-3.211,4.992-5.344
        c1.055-0.07,1.582,0.364,1.582,1.301c0,0.773-0.487,1.992-1.459,3.656c-0.974,1.665-1.94,3.1-2.9,4.307
        c-0.962,1.208-2.057,2.396-3.287,3.568c-1.23,1.172-2.573,2.215-4.025,3.129c-3.259,2.063-6.609,3.094-10.055,3.094
        C110.484,64.125,108.023,62.696,106.734,59.836z M133.805,25.119c-0.962,0.48-1.999,0.844-3.111,1.09
        c-1.114,0.246-2.081,0.369-2.9,0.369c-0.821,0-1.56-0.1-2.215-0.299c-0.657-0.199-1.243-0.486-1.758-0.861
        c-1.125-0.82-1.688-1.805-1.688-2.953c0-1.148,0.204-2.121,0.615-2.918c0.409-0.796,1.002-1.477,1.775-2.039
        c1.663-1.218,3.661-1.828,5.994-1.828c2.331,0,4.03,0.48,5.098,1.441c1.065,0.961,1.6,2.063,1.6,3.305
        c0,1.243-0.329,2.215-0.984,2.918C135.574,24.047,134.765,24.639,133.805,25.119z"/>
      
      <path d="M159.575,34.875c-1.289-0.093-2.543-0.07-3.762,0.07c0,0.234,0,0.645,0,1.23
        c0,0.586,0.082,1.465,0.246,2.637c0.164,1.172,0.363,2.461,0.598,3.867c0.656,3.985,0.984,6.68,0.984,8.086
        s-0.094,2.555-0.281,3.445c3.539-0.891,6.785-2.93,9.738-6.117c0.891-0.961,1.688-1.969,2.391-3.023
        c0.68-0.047,1.113,0.076,1.301,0.369c0.188,0.293,0.281,0.604,0.281,0.932c0,0.329-0.27,1.125-0.809,2.391s-1.564,2.86-3.076,4.781
        c-1.512,1.922-3.393,3.656-5.643,5.203c-5.086,3.493-11.203,5.261-18.352,5.309c-0.656,0.047-1.605,0.07-2.848,0.07
        s-2.613-0.346-4.113-1.037c-1.5-0.691-2.777-1.635-3.832-2.83c-2.18-2.461-3.27-5.613-3.27-9.457c0-1.594,1.207-3.387,3.621-5.379
        c0.68-0.563,1.359-1.055,2.039-1.477c2.344-3.516,5.678-6.562,10.002-9.141c4.324-2.578,8.373-3.867,12.146-3.867
        c1.359,0,2.297,0.375,2.813,1.125C160.313,32.859,160.254,33.797,159.575,34.875z M141.891,51.223
        c0.516,0.399,1.09,0.598,1.723,0.598s1.254-0.246,1.863-0.738s1.166-1.148,1.67-1.969c0.504-0.82,0.949-1.77,1.336-2.848
        c0.387-1.078,0.732-2.203,1.037-3.375c0.516-1.969,1.031-4.301,1.547-6.996c-3.961,1.219-7.465,3.152-10.512,5.801
        c-0.914,0.821-1.711,1.652-2.391,2.496C138.985,47.566,140.227,49.91,141.891,51.223z"/>
    </g>
  </svg>